<?xml version="1.0" standalone="no"?>
<!DOCTYPE svg PUBLIC "-//W3C//DTD SVG 20010904//EN"
 "http://www.w3.org/TR/2001/REC-SVG-20010904/DTD/svg10.dtd">
<svg version="1.0" xmlns="http://www.w3.org/2000/svg"
 width="628.000000pt" height="628.000000pt" viewBox="0 0 628.000000 628.000000"
 preserveAspectRatio="xMidYMid meet">
<metadata>
Created by potrace 1.11, written by Peter Selinger 2001-2013
</metadata>
<g transform="translate(0.000000,628.000000) scale(0.100000,-0.100000)"
fill="#000000" stroke="none">
<path d="M3128 6273 c-1 -4 -28 -28 -58 -53 -30 -25 -57 -47 -60 -50 -4 -4
-65 -52 -125 -97 -190 -145 -461 -311 -740 -454 -104 -53 -192 -97 -195 -98
-3 0 -34 -13 -70 -29 -60 -27 -98 -43 -110 -47 -3 -1 -18 -7 -35 -14 -91 -39
-369 -139 -435 -156 -8 -3 -67 -18 -130 -35 -63 -18 -131 -36 -150 -41 -50
-13 -275 -58 -329 -65 -25 -3 -55 -8 -66 -10 -20 -4 -78 -11 -150 -19 -22 -2
-65 -7 -95 -10 -30 -3 -68 -7 -85 -9 -26 -3 -30 -7 -32 -42 -11 -142 -4 -563
12 -689 2 -16 7 -64 11 -105 3 -41 8 -83 10 -94 2 -10 6 -44 10 -75 3 -31 7
-63 9 -71 7 -38 17 -102 20 -123 1 -12 7 -49 13 -82 6 -33 14 -73 16 -90 9
-49 76 -347 86 -380 5 -16 11 -41 14 -55 19 -97 141 -467 220 -667 50 -127
168 -387 178 -391 4 -2 8 -10 8 -17 0 -8 11 -34 24 -57 13 -24 39 -72 58 -108
19 -36 50 -91 69 -123 19 -32 39 -66 44 -75 19 -34 109 -177 117 -187 4 -5 38
-52 75 -104 l66 -95 -27 -50 c-42 -77 -167 -313 -290 -551 -37 -71 -71 -134
-76 -140 -9 -12 -91 -166 -172 -325 -47 -94 -58 -124 -58 -164 0 -106 71 -185
173 -194 38 -3 85 5 172 28 66 18 128 36 137 41 9 5 100 31 203 59 103 28 194
54 203 59 9 5 114 35 232 66 118 32 224 62 235 68 34 18 307 87 319 80 12 -7
198 -127 236 -153 14 -9 35 -20 48 -24 12 -4 22 -12 22 -17 0 -5 6 -9 13 -9 7
0 28 -11 47 -24 19 -13 117 -65 217 -115 l182 -92 153 76 c184 92 278 144 296
162 7 7 18 13 23 13 13 0 143 81 147 91 2 5 7 9 12 9 8 0 145 90 204 133 264
196 531 437 721 652 33 37 65 73 70 79 9 10 130 160 158 196 56 71 227 318
227 327 0 3 11 21 25 39 14 18 25 35 25 38 0 3 15 29 33 58 64 101 220 398
209 398 -4 0 -2 4 4 8 26 18 271 626 279 692 0 3 3 10 6 15 5 8 17 51 24 85 0
3 8 28 17 55 36 113 100 366 123 485 3 14 7 36 10 50 3 14 7 36 10 50 3 14 7
35 9 46 2 12 7 39 10 60 4 22 13 77 21 124 13 81 18 121 30 228 3 26 8 70 12
97 7 56 7 60 19 235 12 186 9 579 -5 581 -3 0 -15 2 -26 4 -11 2 -51 7 -90 10
-97 8 -187 19 -250 31 -11 2 -38 6 -61 9 -46 5 -157 27 -259 50 -38 9 -81 18
-95 21 -14 2 -36 9 -50 14 -14 5 -70 21 -125 35 -322 86 -819 293 -1103 462
-41 24 -76 43 -78 43 -19 0 -444 279 -444 292 0 4 -5 8 -11 8 -10 0 -183 134
-219 170 -28 28 -68 52 -72 43z m53 -609 c19 -14 65 -46 103 -71 l69 -45 -8
-1162 c-5 -852 -4 -1172 4 -1203 13 -49 55 -88 111 -103 22 -6 140 -14 262
-18 l223 -7 3 -1007 2 -1007 -56 -43 c-31 -24 -64 -51 -73 -60 -8 -10 -21 -18
-28 -18 -7 0 -13 -4 -13 -8 0 -8 -155 -122 -165 -122 -3 0 -6 395 -7 878 -3
819 -4 880 -21 905 -40 62 -39 62 -411 65 l-339 3 6 217 c4 119 7 282 7 362
l0 145 44 23 c58 31 119 93 148 150 20 41 23 62 23 157 0 95 -3 116 -23 158
-30 59 -92 121 -157 156 -46 24 -59 26 -170 26 -114 0 -123 -1 -173 -29 -66
-37 -122 -93 -153 -154 -21 -41 -24 -60 -24 -157 0 -98 3 -116 25 -159 31 -60
98 -127 151 -152 l40 -18 -3 -451 c-3 -417 -2 -453 15 -478 40 -62 39 -62 409
-65 l338 -3 0 -877 0 -878 -72 -39 c-135 -74 -122 -71 -176 -44 -26 13 -49 26
-52 29 -3 3 -25 15 -50 28 -48 24 -69 36 -113 66 l-28 18 3 587 c3 547 2 588
-15 614 -42 65 -9 62 -681 65 -547 2 -612 4 -628 19 -10 9 -18 20 -18 24 0 5
-29 55 -64 112 -114 185 -257 477 -345 707 -18 47 -37 94 -41 105 -20 46 -83
237 -112 335 -31 107 -97 364 -95 366 5 3 698 -14 701 -17 3 -2 8 -156 12
-341 l7 -336 -51 -26 c-62 -31 -120 -90 -153 -154 -21 -41 -24 -60 -24 -157 0
-97 3 -116 24 -157 31 -61 93 -123 156 -157 46 -24 60 -26 170 -26 113 0 123
2 172 29 66 37 126 96 155 154 20 41 23 62 23 157 0 96 -3 116 -24 156 -30 60
-90 123 -139 148 l-40 20 -7 413 c-3 227 -11 429 -16 449 -11 42 -44 76 -88
89 -17 5 -170 11 -339 15 -169 3 -371 8 -449 11 -157 7 -147 2 -157 79 -4 22
-8 51 -11 65 -7 39 -16 102 -20 140 -2 19 -6 60 -10 90 -3 30 -7 71 -10 90 -7
61 -18 223 -19 280 l-1 55 65 12 c36 7 83 15 105 18 22 3 68 12 103 20 34 8
74 17 90 20 15 2 70 16 122 29 302 77 632 194 925 329 116 53 417 206 429 218
6 5 14 9 18 9 4 0 8 -173 8 -385 l0 -385 -262 0 -263 1 -17 37 c-29 61 -73
106 -140 143 -62 33 -65 34 -183 34 -119 0 -121 0 -185 -36 -116 -64 -170
-160 -170 -304 0 -144 54 -240 170 -304 59 -32 74 -36 160 -39 52 -2 113 1
135 7 70 19 147 72 188 131 l38 55 342 5 c319 5 344 6 376 25 19 11 43 33 55
48 21 28 21 36 23 580 l2 552 84 55 c47 30 95 63 108 73 69 50 93 67 99 67 3
0 22 -12 41 -26z m614 -381 c138 -74 421 -213 435 -213 4 0 25 -9 47 -19 60
-30 155 -69 186 -76 15 -4 30 -11 33 -16 3 -5 14 -9 24 -9 18 0 19 -15 22
-409 3 -396 4 -410 24 -437 11 -15 33 -37 48 -48 27 -20 41 -21 462 -24 405
-3 435 -4 430 -20 -2 -9 -10 -50 -16 -89 l-12 -73 -649 0 -649 0 0 209 0 208
63 37 c72 44 130 111 153 179 23 70 16 217 -13 277 -30 59 -89 119 -155 155
-50 29 -59 30 -173 30 -114 0 -123 -1 -173 -30 -66 -36 -125 -96 -155 -155
-26 -54 -36 -200 -17 -264 22 -76 89 -158 162 -196 l37 -20 3 -288 3 -289 27
-41 c55 -83 -4 -77 781 -80 692 -2 699 -3 694 -22 -3 -11 -15 -63 -28 -115
l-23 -94 -366 -3 c-401 -3 -396 -3 -437 -65 -17 -25 -18 -82 -21 -826 l-2
-800 -43 -51 c-23 -28 -45 -52 -49 -54 -5 -2 -8 -7 -8 -12 0 -9 -41 -56 -137
-159 -35 -36 -63 -69 -63 -73 0 -5 -4 -8 -10 -8 -7 0 -10 321 -10 943 0 583
-4 955 -10 976 -13 45 -46 79 -89 91 -20 6 -138 13 -263 17 -125 3 -232 9
-239 13 -9 6 -10 249 -4 1024 l7 1017 22 -14 c11 -8 80 -46 151 -84z m1135
-467 c52 -14 118 -33 145 -41 28 -8 64 -17 82 -20 17 -3 69 -14 115 -24 46
-11 99 -22 118 -25 19 -4 67 -11 107 -18 l71 -11 -3 -71 c-7 -130 -16 -251
-21 -278 l-6 -28 -364 0 -364 0 0 276 c0 217 3 275 13 271 6 -2 55 -16 107
-31z m-778 -81 c21 -14 38 -29 38 -33 0 -4 13 -22 29 -39 16 -18 28 -40 26
-50 -2 -10 -4 -25 -4 -33 -1 -21 -69 -94 -111 -119 -48 -28 -103 -27 -156 4
-47 28 -96 100 -96 140 0 37 48 111 87 135 71 44 114 43 187 -5z m-2347 -165
c105 -65 101 -206 -8 -273 -58 -37 -103 -37 -162 -3 -48 29 -97 100 -97 141 0
37 48 111 87 135 69 43 111 43 180 0z m998 -739 c32 -20 74 -67 94 -106 17
-32 4 -71 -41 -118 -78 -83 -143 -98 -221 -53 -48 29 -97 100 -97 141 0 37 48
111 87 135 69 43 111 43 178 1z m2471 -773 c-3 -13 -17 -52 -31 -88 -13 -36
-26 -73 -28 -82 -2 -10 -10 -32 -18 -50 -8 -18 -34 -80 -57 -138 -74 -180
-221 -472 -301 -599 l-29 -46 0 513 0 512 236 0 235 0 -7 -22z m-3493 -346
c42 -26 108 -109 104 -130 -2 -9 -4 -24 -4 -33 -1 -22 -79 -103 -121 -124 -47
-24 -93 -21 -145 9 -48 29 -97 100 -97 141 0 37 48 111 87 135 68 42 112 43
176 2z m809 -1180 c0 -76 -3 -260 -7 -408 l-6 -270 -46 24 c-39 20 -55 22
-106 17 -33 -3 -85 -17 -115 -30 -30 -13 -113 -42 -185 -64 -71 -23 -139 -45
-150 -50 -78 -33 -154 -57 -325 -102 -107 -28 -206 -57 -220 -64 -29 -14 -121
-38 -126 -32 -5 5 175 356 232 452 16 28 45 81 64 119 34 69 41 79 105 151 20
22 43 55 51 74 9 18 27 52 41 74 l26 41 -18 70 c-11 40 -29 82 -42 96 -13 14
-23 28 -23 32 0 5 191 8 425 8 l425 0 0 -138z"/>
</g>
</svg>
